<?xml version="1.0" encoding="UTF-8"?>
<svg width="800px" height="350px" viewBox="0 0 800 350" version="1.1" xmlns="http://www.w3.org/2000/svg" xmlns:xlink="http://www.w3.org/1999/xlink" style="background: #F8F8F8;">
    <!-- Generator: Sketch 43.1 (39012) - http://www.bohemiancoding.com/sketch -->
    <title>image-upload-cover-default</title>
    <desc>Created with Sketch.</desc>
    <defs></defs>
    <g id="Page-1" stroke="none" stroke-width="1" fill="none" fill-rule="evenodd">
        <g id="image-upload-cover-default" fill="#000000">
            <g id="images" transform="translate(337.000000, 121.000000)">
                <g id="Group">
                    <path d="M120.396,21.3755844 L97.1126667,20.2535065 L95.758,5.16155844 C95.4757778,1.99168831 92.6253333,-0.224415584 89.2951111,0.0280519481 L5.75733333,6.84467532 C2.42711111,7.12519481 0.0282222222,9.79012987 0.282222222,12.9319481 L6.26533333,79.0784416 C6.54755556,82.2483117 9.42622222,84.4644156 12.7282222,84.2119481 L16.9615556,83.8753247 L16.2842222,96.7231169 C16.1148889,100.257662 18.8806667,103.118961 22.606,103.315325 L115.795778,107.719481 C119.521111,107.887792 122.597333,105.307013 122.794889,101.772468 L126.717778,27.9116883 C126.887111,24.4051948 124.093111,21.5438961 120.396,21.3755844 L120.396,21.3755844 Z M20.2071111,22.8623377 L18.2033333,60.6763636 L13.2926667,67.6051948 L8.77711111,17.6727273 L8.77711111,17.5324675 L8.77711111,17.3922078 C8.91822222,15.9896104 9.99066667,14.8675325 11.4582222,14.7553247 L85.1182222,8.75220779 C86.5857778,8.64 87.8557778,9.59376623 88.0815556,10.9683117 C88.0815556,11.0244156 88.1662222,11.0244156 88.1662222,11.0805195 C88.1662222,11.1085714 88.2508889,11.1366234 88.2508889,11.1927273 L89.0128889,19.8327273 L27.2062222,16.8872727 C23.4808889,16.7750649 20.3764444,19.3558442 20.2071111,22.8623377 L20.2071111,22.8623377 Z M114.497556,89.3174026 L101.317778,73.8046753 L93.5566667,64.6316883 C92.8793333,63.8181818 91.7786667,63.1449351 90.5651111,63.0888312 C89.3515556,63.0327273 88.4484444,63.5096104 87.4324444,64.238961 L82.804,67.5771429 C81.8162222,68.1662338 81.0542222,68.558961 80.01,68.5028571 C78.994,68.4467532 78.0908889,68.054026 77.4417778,67.4368831 C77.216,67.2124675 76.7926667,66.8197403 76.454,66.4831169 L64.3748889,52.7657143 C63.5,51.6716883 62.0606667,50.9703896 60.4802222,50.8862338 C58.8715556,50.8020779 57.3193333,51.4753247 56.3033333,52.4571429 L27.7706667,82.9776623 L25.8515556,85.0535065 L25.9362222,83.145974 L27.8553333,46.987013 L28.7866667,29.3423377 L28.7866667,29.2020779 L28.7866667,29.0618182 C29.1817778,27.547013 30.5364444,26.452987 32.1451111,26.5371429 L89.7748889,29.2862338 L97.8746667,29.678961 L114.328222,30.4644156 C115.965111,30.5485714 117.235111,31.7828571 117.263333,33.3257143 C117.263333,33.3818182 117.348,33.4098701 117.348,33.465974 C117.348,33.5220779 117.432667,33.5501299 117.432667,33.6062338 L114.497556,89.3174026 L114.497556,89.3174026 Z" id="Shape"></path>
                    <path d="M96.5764444,55.627013 C102.051556,55.627013 106.510667,51.1948052 106.510667,45.7527273 C106.510667,40.3106494 102.079778,35.8784416 96.5764444,35.8784416 C91.1013333,35.8784416 86.6422222,40.2825974 86.6422222,45.7527273 C86.6422222,51.2228571 91.0731111,55.627013 96.5764444,55.627013 L96.5764444,55.627013 Z" id="Shape"></path>
                </g>
            </g>
        </g>
    </g>
</svg>