<?xml version="1.0" encoding="UTF-8"?>
<svg width="384px" height="384px" viewBox="0 0 384 384" version="1.1" xmlns="http://www.w3.org/2000/svg" xmlns:xlink="http://www.w3.org/1999/xlink">
    <!-- Generator: Sketch 43.1 (39012) - http://www.bohemiancoding.com/sketch -->
    <title>ios-book-outline</title>
    <desc>Created with Sketch.</desc>
    <defs></defs>
    <g id="Page" stroke="none" stroke-width="1" fill="none" fill-rule="evenodd">
        <g id="iOS" transform="translate(-13931.000000, -1342.000000)" fill="#000000">
            <g id="ios-book-outline" transform="translate(13931.000000, 1342.000000)">
                <path d="M283.621,0 C242.68,0 204.5,14 192.043,44.495 C178.5,14 141.408,0 100.466,0 C45.265,0 0,25.98 0,79 L0,80 L0,88.995 L0,353 L0,362 L6.215,362 L17.173,362 L22.14,362 C35,335.666 66.378,320 100.465,320 C140.689,320 174.342,347.528 182.082,384 L201.796,384 C209.535,347.528 243.291,320 283.518,320 C317.603,320 344.667,331.666 361.947,362 L366.914,362 L377.873,362 L384,362 L384,345 L384,84 L384,80 L384,79 C384,25.98 338.823,0 283.621,0 L283.621,0 Z M184,346.926 C166,321.055 135.27,304 100.5,304 C65.731,304 36,314.055 17,339.926 L16,340.463 L16,78 L16,77 C19,35.175 56.089,16 100.293,16 C145.455,16 182.438,34.708 183.656,77.808 C183.639,78.537 183.672,79.267 183.672,80 L184,93.103 L184,346.926 L184,346.926 Z M368,84 L368,339.926 C350,314.055 318.269,304 283.5,304 C248.73,304 218,321.055 200,346.926 L200,81 L200,80 C200,35.888 237.659,16 283.587,16 C327.79,16 365,27.175 368,69 L368,70 L368,84 L368,84 Z" id="Shape"></path>
            </g>
        </g>
    </g>
</svg>