<?xml version="1.0" encoding="UTF-8"?>
<svg width="384px" height="450px" viewBox="0 0 384 450" version="1.1" xmlns="http://www.w3.org/2000/svg" xmlns:xlink="http://www.w3.org/1999/xlink">
    <!-- Generator: Sketch 43.1 (39012) - http://www.bohemiancoding.com/sketch -->
    <title>ios-body</title>
    <desc>Created with Sketch.</desc>
    <defs></defs>
    <g id="Page" stroke="none" stroke-width="1" fill="none" fill-rule="evenodd">
        <g id="iOS" transform="translate(-11231.000000, -1309.000000)" fill="#000000">
            <g id="ios-body" transform="translate(11231.000000, 1309.000000)">
                <g id="Group">
                    <circle id="Oval" cx="192" cy="48.838" r="48"></circle>
                    <path d="M360,113 L24,113 C10.745,113 0,123.745 0,137 C0,150.255 10.745,161 24,161 L122.451,161 C128.03,162 135.648,164.837 139.667,175.252 C144.318,187.308 142.037,208.858 139.128,226.979 L135.353,248.374 C135.334,248.478 135.314,248.581 135.295,248.685 C135.293,248.693 135.293,248.697 135.291,248.705 L104.916,420.973 C102.613,434.026 111.33,446.473 124.383,448.776 C137.438,451.077 149.716,442.36 152.017,429.305 L173,309.348 L173,309.515 C173,309.515 179.25,277 191.452,277 L192.548,277 C205,277 211,309.515 211,309.515 L211,309.432 L231.983,429.345 C234.284,442.4 246.646,451.094 259.701,448.793 C272.754,446.49 281.429,434.031 279.126,420.979 L248.73,248.703 C248.728,248.695 248.717,248.683 248.715,248.676 C248.696,248.572 248.671,248.459 248.652,248.354 L244.875,226.94 C241.966,208.819 239.684,187.309 244.334,175.252 C248.354,164.838 255.97,162 261.549,161 L360,161 C373.255,161 384,150.255 384,137 C384,123.745 373.255,113 360,113 L360,113 Z" id="Shape"></path>
                </g>
            </g>
        </g>
    </g>
</svg>