<?xml version="1.0" encoding="UTF-8"?>
<svg width="30px" height="29px" viewBox="0 0 30 29" version="1.1" xmlns="http://www.w3.org/2000/svg" xmlns:xlink="http://www.w3.org/1999/xlink">
    <!-- Generator: Sketch 43.1 (39012) - http://www.bohemiancoding.com/sketch -->
    <title>ios-compose-outline</title>
    <desc>Created with Sketch.</desc>
    <defs></defs>
    <g id="Page" stroke="none" stroke-width="1" fill="none" fill-rule="evenodd">
        <g id="iOS" transform="translate(-11409.000000, -4286.000000)" fill="#FFFFFF">
            <g id="ios-compose-outline" transform="translate(11409.000000, 4286.000000)">
                <g id="Group">
                    <polygon id="Shape" points="23.75 27.7391304 1.25 27.7391304 1.25 6.30434783 18.7591406 6.30434783 20.0091406 5.04347826 0 5.04347826 0 29 25 29 25 10.0777364 23.75 11.338606"></polygon>
                    <polygon id="Shape" points="13.5642969 17.3435761 12.8060156 16.5786223 26.190625 3.077625 25.3067969 2.18603261 11.25 16.3638016 11.25 18.9130435 13.766875 18.9130435 27.8328906 4.72952174 26.9489844 3.84013587"></polygon>
                    <path d="M29.7041406,1.28545652 L28.7303125,0.303081522 C28.5221875,0.115605978 28.2465625,-4.4408921e-16 27.9489063,-4.4408921e-16 C27.6510938,-4.4408921e-16 27.3782813,0.115684783 27.1732031,0.303396739 L26.2239063,1.26086957 L26.2301563,1.26717391 L27.1124219,2.15711141 L28.7546094,3.8135788 L29.7038281,2.85610598 C29.89,2.64924457 30,2.37405978 30,2.07365761 C30,1.77341304 29.89,1.4953125 29.7041406,1.28545652 L29.7041406,1.28545652 Z" id="Shape"></path>
                </g>
            </g>
        </g>
    </g>
</svg>