<?xml version="1.0" encoding="UTF-8"?>
<svg width="416px" height="416px" viewBox="0 0 416 416" version="1.1" xmlns="http://www.w3.org/2000/svg" xmlns:xlink="http://www.w3.org/1999/xlink">
    <!-- Generator: Sketch 43.1 (39012) - http://www.bohemiancoding.com/sketch -->
    <title>ios-world-outline</title>
    <desc>Created with Sketch.</desc>
    <defs></defs>
    <g id="Page" stroke="none" stroke-width="1" fill="none" fill-rule="evenodd">
        <g id="iOS" transform="translate(-11215.000000, -14234.000000)" fill="#000000">
            <g id="ios-world-outline" transform="translate(11215.000000, 14234.000000)">
                <path d="M208,0 L207.8,0 C207.8,0 207.8,0 207.7,0 L207.5,0 C92.8,0.3 0,93.3 0,208 C0,322.7 92.8,415.7 207.5,416 L207.7,416 L207.8,416 L208,416 C322.9,416 416,322.9 416,208 C416,93.1 322.9,0 208,0 L208,0 Z M216.3,124.5 C238.4,123.9 259.8,121 280.5,116 C286.7,140.5 290.6,168.8 291.2,199.8 L216.3,199.8 L216.3,124.5 L216.3,124.5 Z M216.3,107.8 L216.3,18 C238.7,24.2 261.5,54.1 275.9,100 C256.7,104.6 236.8,107.2 216.3,107.8 L216.3,107.8 Z M199.7,17.8 L199.7,107.9 C179,107.3 158.9,104.6 139.6,99.9 C154.2,53.7 177.1,23.6 199.7,17.8 L199.7,17.8 Z M199.7,124.5 L199.7,199.7 L124.3,199.7 C124.9,168.7 128.8,140.4 135,115.9 C155.8,120.9 177.5,123.9 199.7,124.5 L199.7,124.5 Z M107.5,199.7 L16.9,199.7 C18.7,156.9 34.7,117.7 60.2,86.7 C78.7,96.9 98.4,105.3 119,111.5 C112.2,138 108.2,167.9 107.5,199.7 L107.5,199.7 Z M107.5,216.3 C108.1,248 112.1,278 118.9,304.5 C98.3,310.8 78.7,319.1 60.1,329.3 C34.6,298.3 18.7,259.1 16.8,216.3 L107.5,216.3 L107.5,216.3 Z M124.3,216.3 L199.7,216.3 L199.7,291.4 C177.5,292 155.8,295 135,300.1 C128.8,275.6 124.9,247.3 124.3,216.3 L124.3,216.3 Z M199.7,308.1 L199.7,398.3 C177.1,392.4 154.2,362.4 139.6,316.2 C158.9,311.4 179,308.7 199.7,308.1 L199.7,308.1 Z M216.3,398 L216.3,308 C236.8,308.6 256.7,311.3 276,315.9 C261.5,361.9 238.8,391.8 216.3,398 L216.3,398 Z M216.3,291.4 L216.3,216.3 L291.2,216.3 C290.6,247.2 286.7,275.5 280.5,300 C259.8,295 238.4,292 216.3,291.4 L216.3,291.4 Z M307.9,216.3 L399.1,216.3 C397.3,259.1 381.3,298.2 355.8,329.3 C337.1,319 317.3,310.6 296.5,304.3 C303.3,277.8 307.3,248 307.9,216.3 L307.9,216.3 Z M307.9,199.7 C307.3,168 303.3,138.1 296.6,111.6 C317.4,105.3 337.2,96.9 355.8,86.7 C381.3,117.7 397.3,156.9 399.1,199.8 L307.9,199.8 L307.9,199.7 Z M344.4,73.9 C327.8,82.7 310.4,90 292.1,95.5 C282.4,64.2 268.7,38.7 252.6,21.9 C288,30.4 319.6,48.8 344.4,73.9 L344.4,73.9 Z M162.8,22.1 C146.7,38.8 133.1,64.3 123.5,95.4 C105.4,89.9 88.1,82.7 71.7,73.9 C96.2,48.9 127.6,30.6 162.8,22.1 L162.8,22.1 Z M71.6,342 C88,333.2 105.4,326 123.4,320.5 C133.1,351.7 146.7,377.1 162.8,393.9 C127.6,385.4 96.2,367.1 71.6,342 L71.6,342 Z M252.6,394.1 C268.8,377.3 282.4,351.8 292.2,320.4 C310.5,325.9 327.9,333.2 344.5,342 C319.7,367.2 288,385.6 252.6,394.1 L252.6,394.1 Z" id="Shape"></path>
            </g>
        </g>
    </g>
</svg>